<svg width="538" height="467" viewBox="0 0 538 467" fill="none" xmlns="http://www.w3.org/2000/svg">
<path d="M0 233L134.5 0.0391846H403.5L538 233L403.5 465.961H134.5L0 233Z" fill="white"/>
<g clip-path="url(#clip0_5_3)">
<path d="M128 132.582L267.148 83L410 131.675L386.872 315.72L267.148 382.006L149.314 316.627L128 132.582Z" fill="#E23237"/>
<path d="M409.924 131.675L267.148 83V382.006L386.872 315.795L409.924 131.675Z" fill="#B52E31"/>
<path d="M267.375 117.919L180.681 310.731L213.031 310.202L230.415 266.667H308.19L327.237 310.731L358.15 311.261L267.375 117.919ZM267.602 179.746L296.928 240.968H241.828L267.602 179.746Z" fill="white"/>
</g>
<defs>
<clipPath id="clip0_5_3">
<rect width="282" height="305" fill="white" transform="translate(128 77)"/>
</clipPath>
</defs>
</svg>
